<svg id="Layer_1" data-name="Layer 1" xmlns="http://www.w3.org/2000/svg" viewBox="0 0 346 432"><defs><style>.cls-1{fill:gray;opacity:0.7;}.cls-2{fill:#fff;}</style></defs><title>conceptPaperGray</title><polygon class="cls-1" points="330.61 414.1 16.39 414.1 16.39 91.08 60 47 98.26 10.9 330.61 10.9 330.61 414.1"/><path class="cls-2" d="M177.62,133.63a4.73,4.73,0,0,0-4.73-4.73,33,33,0,0,0-30.57,20.51,4.73,4.73,0,0,0,8.75,3.59,23.51,23.51,0,0,1,14.75-13.57,23.77,23.77,0,0,1,7.07-1.08A4.72,4.72,0,0,0,177.62,133.63Z"/><path class="cls-2" d="M172.89,109.39a52.13,52.13,0,0,0-52.07,52.08c0,21.87,6.89,31.31,16.63,42.28a39.11,39.11,0,0,1,6.65,10.81l.34-.06,9.19-.77.3-.1a49.64,49.64,0,0,0-9.41-16.16c-7.65-8.61-14.25-16-14.25-36a42.63,42.63,0,1,1,85.25,0c0,20-6.6,27.4-14.25,36a62.14,62.14,0,0,0-9,13.05l11.95-1a36.43,36.43,0,0,1,4.11-5.77c9.74-11,16.64-20.41,16.64-42.28A52.16,52.16,0,0,0,172.89,109.39Z"/><path class="cls-2" d="M140.12,227.33a4.71,4.71,0,0,0,4.7,4.33h.4l56.12-4.7a4.73,4.73,0,0,0-.79-9.42l-56.12,4.7A4.72,4.72,0,0,0,140.12,227.33Z"/><path class="cls-2" d="M144.82,248.7a2.61,2.61,0,0,0,.4,0L201.34,244a4.73,4.73,0,0,0-.79-9.42l-56.12,4.7a4.72,4.72,0,0,0,.39,9.43Z"/><path class="cls-2" d="M174.45,258.61a12.91,12.91,0,0,1-8.93-3.59l-11,.92a22.4,22.4,0,0,0,41.23-3.45l-11,.91A12.92,12.92,0,0,1,174.45,258.61Z"/><path class="cls-2" d="M87.52,10.9,16.39,82V414.1H330.6V10.9ZM84.1,30.8V79H35.9ZM319,402.44H28.05V90.66H95.76V22.56H319V402.44Z"/><path class="cls-2" d="M130.77,104.87a4.23,4.23,0,0,0,5.72,1.08l.07,0a4.22,4.22,0,0,0,1.58-5.6L128.24,82a4.18,4.18,0,0,0-5.78-1.65c-.86.51-1.72,1-2.56,1.58a4.18,4.18,0,0,0-1.09,5.91Z"/><path class="cls-2" d="M106.54,198l-18.72,9a4.18,4.18,0,0,0-1.92,5.7c.47.88,1,1.77,1.47,2.64a4.2,4.2,0,0,0,5.86,1.36l17.53-11.16a4.24,4.24,0,0,0,1.34-5.67.43.43,0,0,1,0-.07A4.22,4.22,0,0,0,106.54,198Z"/><path class="cls-2" d="M78.86,175.12l20.68-2.05a4.22,4.22,0,0,0,3.75-4.45v-.11a4.23,4.23,0,0,0-4.11-4.12l-20.79-.34a4.18,4.18,0,0,0-4.27,4.23c0,1,.06,2,.12,3A4.19,4.19,0,0,0,78.86,175.12Z"/><path class="cls-2" d="M171.67,95.46h.11a4.23,4.23,0,0,0,4.19-4l.64-20.78a4.17,4.17,0,0,0-4.16-4.33c-1,0-2,0-3,.08a4.19,4.19,0,0,0-3.93,4.55l1.74,20.71A4.23,4.23,0,0,0,171.67,95.46Z"/><path class="cls-2" d="M86.4,117.77c-.48.87-1,1.76-1.41,2.65a4.19,4.19,0,0,0,2,5.66l18.89,8.67a4.21,4.21,0,0,0,5.48-1.93l0-.1a4.22,4.22,0,0,0-1.45-5.63L92.23,116.28A4.19,4.19,0,0,0,86.4,117.77Z"/><path class="cls-2" d="M253.22,217.61a4.19,4.19,0,0,0,5.87-1.31c.51-.86,1-1.73,1.49-2.61a4.19,4.19,0,0,0-1.85-5.72l-18.62-9.25a4.22,4.22,0,0,0-5.54,1.77l0,.09a4.22,4.22,0,0,0,1.28,5.67Z"/><path class="cls-2" d="M233.86,129.68a4.23,4.23,0,0,0,5.58,1.67l18.43-9.61a4.18,4.18,0,0,0,1.74-5.76c-.5-.86-1-1.72-1.54-2.58a4.18,4.18,0,0,0-5.9-1.18L235,123.91a4.22,4.22,0,0,0-1.17,5.7Z"/><path class="cls-2" d="M207.35,104.11l.08,0a4.23,4.23,0,0,0,5.66-1.37l11.09-17.58a4.19,4.19,0,0,0-1.39-5.85c-.88-.49-1.75-1-2.64-1.45a4.17,4.17,0,0,0-5.69,1.94l-9,18.75A4.21,4.21,0,0,0,207.35,104.11Z"/><path class="cls-2" d="M243.78,165v.09a4.22,4.22,0,0,0,4,4.25l20.76,1a4.18,4.18,0,0,0,4.4-4.1c0-1,0-2,0-3a4.2,4.2,0,0,0-4.5-4l-20.73,1.44A4.23,4.23,0,0,0,243.78,165Z"/><path class="cls-2" d="M267.1,291.5H79.94a5.83,5.83,0,1,0,0,11.66H267.09a5.83,5.83,0,0,0,0-11.66Z"/><path class="cls-2" d="M267.1,324.55H79.94a5.83,5.83,0,0,0,0,11.66H267.09a5.83,5.83,0,0,0,0-11.66Z"/><path class="cls-2" d="M171.79,357.6H79.94a5.83,5.83,0,0,0,0,11.66h91.85a5.83,5.83,0,1,0,0-11.66Z"/></svg>