<?xml version="1.0" encoding="utf-8"?>
<!-- Generator: Adobe Illustrator 16.0.0, SVG Export Plug-In . SVG Version: 6.00 Build 0)  -->
<!DOCTYPE svg PUBLIC "-//W3C//DTD SVG 1.1//EN" "http://www.w3.org/Graphics/SVG/1.1/DTD/svg11.dtd">
<svg version="1.1" id="Layer_1" xmlns="http://www.w3.org/2000/svg" xmlns:xlink="http://www.w3.org/1999/xlink" x="0px" y="0px"
	 width="346px" height="432px" viewBox="306.5 11.5 346 432" enable-background="new 306.5 11.5 346 432" xml:space="preserve">
<g>
	<path fill="#FFFFFF" d="M484.117,145.129c0-2.612-2.114-4.726-4.727-4.726c-3.373,0-6.706,0.511-9.91,1.514
		c-9.39,2.952-16.921,9.874-20.661,18.995c-0.99,2.415,0.166,5.174,2.58,6.165c0.587,0.242,1.196,0.354,1.792,0.354
		c1.859,0,3.625-1.107,4.377-2.935c2.67-6.514,8.047-11.456,14.748-13.561c2.281-0.717,4.664-1.08,7.079-1.08
		C481.998,149.856,484.117,147.741,484.117,145.129z"/>
	<path fill="#FFFFFF" d="M479.391,120.893c-28.717,0-52.075,23.363-52.075,52.076c0,21.867,6.895,31.315,16.639,42.278
		c2.675,3.011,4.888,6.662,6.648,10.815c0.116-0.018,0.224-0.054,0.34-0.063l9.188-0.766l0.301-0.107
		c-2.285-6.268-5.452-11.706-9.413-16.159c-7.647-8.602-14.251-16.034-14.251-35.997c0-23.502,19.121-42.627,42.628-42.627
		c23.506,0,42.627,19.121,42.627,42.627c0,19.967-6.604,27.396-14.251,35.997c-2.021,2.276-6.11,7.217-8.987,13.05l11.948-0.995
		c1.236-2.101,2.59-4.068,4.108-5.775c9.744-10.958,16.639-20.406,16.639-42.273C531.466,144.256,508.107,120.893,479.391,120.893z"
		/>
	<path fill="#FFFFFF" d="M446.619,238.833c0.206,2.468,2.271,4.332,4.704,4.332c0.135,0,0.265-0.004,0.399-0.018l56.116-4.695
		c2.603-0.22,4.533-2.504,4.314-5.103c-0.216-2.603-2.522-4.511-5.104-4.314l-56.116,4.695
		C448.335,233.946,446.404,236.23,446.619,238.833z"/>
	<path fill="#FFFFFF" d="M451.323,260.203c0.135,0,0.265-0.005,0.399-0.018l56.116-4.695c2.603-0.219,4.533-2.504,4.314-5.103
		c-0.216-2.603-2.522-4.507-5.104-4.314l-56.116,4.695c-2.603,0.219-4.533,2.504-4.314,5.103
		C446.83,258.339,448.896,260.203,451.323,260.203z"/>
	<path fill="#FFFFFF" d="M480.95,270.108c-3.459,0-6.6-1.371-8.929-3.589l-10.963,0.918c3.736,7.19,11.245,12.123,19.892,12.123
		c9.972,0,18.439-6.55,21.338-15.573l-10.98,0.918C488.942,268.056,485.188,270.108,480.95,270.108z"/>
	<path fill="#FFFFFF" d="M394.02,22.4l-71.129,71.125V425.6h314.214V22.4H394.02z M390.602,42.3v48.2h-48.2L390.602,42.3z
		 M625.452,413.943H334.548V102.157h67.711v-68.1h223.188v379.886H625.452z"/>
	<path fill="#FFFFFF" d="M437.27,116.368c1.3,1.846,3.799,2.271,5.717,1.08c0.026-0.014,0.049-0.031,0.076-0.045
		c1.922-1.187,2.652-3.615,1.577-5.6l-9.901-18.274c-1.12-2.07-3.763-2.863-5.783-1.653c-0.86,0.515-1.712,1.044-2.554,1.581
		c-1.984,1.272-2.446,3.987-1.093,5.914L437.27,116.368z"/>
	<path fill="#FFFFFF" d="M413.037,209.516l-18.717,9.036c-2.119,1.026-3.037,3.625-1.922,5.699c0.475,0.882,0.963,1.765,1.47,2.634
		c1.178,2.038,3.871,2.629,5.86,1.366l17.53-11.164c1.904-1.214,2.446-3.691,1.344-5.663c-0.014-0.027-0.027-0.049-0.045-0.076
		C417.459,209.377,415.071,208.535,413.037,209.516z"/>
	<path fill="#FFFFFF" d="M385.355,186.624l20.685-2.057c2.249-0.224,3.848-2.19,3.749-4.449c0-0.036-0.004-0.071-0.004-0.103
		c-0.094-2.258-1.846-4.086-4.108-4.122l-20.783-0.34c-2.356-0.04-4.341,1.873-4.278,4.229c0.027,0.995,0.067,1.989,0.125,2.988
		C380.875,185.114,383.013,186.856,385.355,186.624z"/>
	<path fill="#FFFFFF" d="M478.172,106.956c0.036,0,0.076,0,0.112-0.004c2.258-0.059,4.117-1.788,4.185-4.045l0.645-20.774
		c0.072-2.352-1.81-4.368-4.162-4.336c-0.994,0.013-1.988,0.036-2.983,0.081c-2.352,0.099-4.126,2.208-3.929,4.552l1.742,20.711
		C473.97,105.388,475.914,107.014,478.172,106.956z"/>
	<path fill="#FFFFFF" d="M392.904,129.266c-0.484,0.878-0.954,1.76-1.411,2.652c-1.075,2.097-0.107,4.677,2.029,5.663l18.888,8.673
		c2.052,0.945,4.427,0.054,5.483-1.939c0.019-0.032,0.031-0.063,0.05-0.094c1.062-1.994,0.475-4.458-1.456-5.636l-17.755-10.801
		C396.722,126.56,394.038,127.205,392.904,129.266z"/>
	<path fill="#FFFFFF" d="M559.717,229.107c1.972,1.286,4.673,0.721,5.874-1.304c0.511-0.865,1.008-1.734,1.491-2.612
		c1.138-2.061,0.251-4.673-1.854-5.721l-18.614-9.251c-2.025-1.004-4.422-0.188-5.542,1.774c-0.018,0.027-0.031,0.058-0.049,0.085
		c-1.125,1.962-0.609,4.444,1.281,5.676L559.717,229.107z"/>
	<path fill="#FFFFFF" d="M540.363,141.183c1.16,1.94,3.57,2.71,5.578,1.667l18.431-9.609c2.088-1.089,2.921-3.718,1.742-5.757
		c-0.501-0.869-1.017-1.729-1.545-2.581c-1.241-2.002-3.952-2.513-5.896-1.187l-17.181,11.697c-1.868,1.272-2.329,3.763-1.169,5.698
		C540.337,141.138,540.35,141.16,540.363,141.183z"/>
	<path fill="#FFFFFF" d="M513.855,115.615c0.026,0.014,0.054,0.031,0.08,0.045c1.977,1.093,4.453,0.542,5.658-1.366l11.084-17.58
		c1.254-1.994,0.654-4.682-1.389-5.851c-0.874-0.497-1.752-0.985-2.639-1.456c-2.079-1.106-4.678-0.184-5.694,1.944l-8.96,18.753
		C511.02,112.139,511.875,114.522,513.855,115.615z"/>
	<path fill="#FFFFFF" d="M550.277,176.467c0,0.031,0,0.062,0,0.094c0.022,2.258,1.721,4.139,3.979,4.247l20.761,0.972
		c2.352,0.112,4.395-1.743,4.403-4.095c0.005-0.999-0.009-1.998-0.035-2.997c-0.063-2.352-2.146-4.162-4.494-3.996l-20.733,1.438
		C551.908,172.287,550.251,174.209,550.277,176.467z"/>
	<path fill="#FFFFFF" d="M573.596,303H386.444c-3.221,0-5.829,2.607-5.829,5.829c0,3.221,2.607,5.828,5.829,5.828h187.151
		c3.222,0,5.829-2.607,5.829-5.828C579.425,305.607,576.817,303,573.596,303z"/>
	<path fill="#FFFFFF" d="M573.596,336.049H386.444c-3.221,0-5.829,2.607-5.829,5.829c0,3.221,2.607,5.828,5.829,5.828h187.151
		c3.222,0,5.829-2.607,5.829-5.828C579.425,338.661,576.817,336.049,573.596,336.049z"/>
	<path fill="#FFFFFF" d="M478.289,369.103h-91.845c-3.221,0-5.829,2.612-5.829,5.829c0,3.216,2.607,5.828,5.829,5.828h91.845
		c3.221,0,5.828-2.607,5.828-5.828C484.117,371.71,481.505,369.103,478.289,369.103z"/>
</g>
<text transform="matrix(1 0 0 1 256 515.1992)" font-family="'HelveticaNeue-Bold'" font-size="22.4">Created by Andrew Nolte</text>
<text transform="matrix(1 0 0 1 256 537.6016)" font-family="'HelveticaNeue-Bold'" font-size="22.4">from the Noun Project</text>
</svg>
