<?xml version="1.0" encoding="utf-8"?>
<!-- Generator: Adobe Illustrator 22.1.0, SVG Export Plug-In . SVG Version: 6.00 Build 0)  -->
<svg version="1.1" id="Layer_1" xmlns="http://www.w3.org/2000/svg" xmlns:xlink="http://www.w3.org/1999/xlink" x="0px" y="0px"
	 viewBox="0 0 440 320" style="enable-background:new 0 0 440 320;" xml:space="preserve">
<style type="text/css">
	.st0{opacity:0.9;fill:#808080;stroke:#000000;stroke-miterlimit:10;}
	.st1{fill:#FFFFFF;}
</style>
<polygon class="st0" points="49.5,32.3 384,32.3 397,44 397,271.7 424.3,271.7 407,294.3 39.7,294.3 13,277.1 49.5,263.7 "/>
<g>
	<g>
		<path class="st1" d="M403.9,277.1H36.1V52.5c0-18.6,15-33.6,33.6-33.6h300.6c18.6,0,33.6,15,33.6,33.6L403.9,277.1L403.9,277.1z
			 M390.5,263.7V52.5c0-11.1-9-20.2-20.2-20.2H69.7c-11.1,0-20.2,9-20.2,20.2v211.2H390.5z"/>
		<path class="st1" d="M21.4,277.1c1.9,6.1,7.5,10.6,14.2,10.6h368.8c6.7,0,12.4-4.4,14.2-10.6H21.4z M432.5,269.7
			c0.1,1,0.2,2.1,0.2,3.1c0,15.6-12.7,28.3-28.3,28.3H35.6c-15.6,0-28.3-12.7-28.3-28.3c0-1.1,0.1-2.1,0.2-3.1c0.4-3.4,3.3-6,6.7-6
			h411.7C429.3,263.7,432.2,266.3,432.5,269.7z"/>
		
			<rect x="188.1" y="141.5" transform="matrix(0.7431 -0.6691 0.6691 0.7431 -56.6204 171.3095)" class="st1" width="13.4" height="35.8"/>
		
			<rect x="190.3" y="143.7" transform="matrix(0.766 -0.6428 0.6428 0.766 -43.7689 180.5843)" class="st1" width="71.7" height="13.4"/>
	</g>
</g>
</svg>
