<?xml version="1.0" encoding="utf-8"?>
<!-- Generator: Adobe Illustrator 22.1.0, SVG Export Plug-In . SVG Version: 6.00 Build 0)  -->
<svg version="1.1" id="Layer_1" xmlns="http://www.w3.org/2000/svg" xmlns:xlink="http://www.w3.org/1999/xlink" x="0px" y="0px"
	 viewBox="0 0 342 387" style="enable-background:new 0 0 342 387;" xml:space="preserve">
<style type="text/css">
	.st0{opacity:0.7;fill:#808080;}
	.st1{fill:#FFFFFF;}
	.st2{enable-background:new    ;}
</style>
<g id="Layer_2">
	<polygon class="st0" points="24,20 276,19.5 291.5,32.5 293,50 319.5,51.5 324.5,56.5 326,255.5 294,256.5 291.5,347 285.5,363.5 
		271.5,369 25,369 	"/>
</g>
<path class="st1" d="M253.3,213.5H245l-19.9-75.3c7,2.4,12.8,3.1,17.2,3.1c6.1,0,9.5-1.4,9.8-1.5c2.3-0.9,3.3-3.5,2.4-5.8
	c-0.9-2.3-3.5-3.4-5.8-2.5c-0.1,0-12.9,4.7-34.8-8.5c-22.2-13.3-42.3-14.7-51.4-14.5V101c0-2.5-2-4.5-4.5-4.5c-2.5,0-4.5,2-4.5,4.5
	v7.6c-9.1-0.2-29.2,1.2-51.4,14.5c-21.8,13.1-34.6,8.5-34.7,8.5c-2.3-0.9-4.9,0.1-5.8,2.4c-0.9,2.3,0.1,4.9,2.4,5.8
	c0.3,0.1,3.7,1.5,9.8,1.5c4,0,9.1-0.6,15.2-2.5l-19.7,74.6h-5.5c-2.5,0-4.5,2-4.5,4.5v11.7c0,8.1,6.6,14.6,14.6,14.6h46
	c8.1,0,14.6-6.6,14.6-14.6V218c0-2.5-2-4.5-4.5-4.5H122l-21-79.4c1.9-1,3.9-2,5.9-3.2c20.4-12.3,39-13.4,46.8-13.2v140.5h-17.4
	c-7.4,0-13.4,6-13.4,13.4v16.4c0,2.5,2,4.5,4.5,4.5h61.5c2.5,0,4.5-2,4.5-4.5v-16.4c0-7.4-6-13.4-13.4-13.4h-17.4V117.6
	c7.7-0.2,26.3,0.9,46.8,13.2c1.5,0.9,2.9,1.7,4.3,2.4l-21.2,80.3h-5.5c-2.5,0-4.5,2-4.5,4.5v11.7c0,8.1,6.6,14.6,14.6,14.6h46
	c8.1,0,14.6-6.6,14.6-14.6V218C257.7,215.5,255.7,213.5,253.3,213.5z M125.7,229.7c0,3.1-2.5,5.7-5.7,5.7H74c-3.1,0-5.7-2.5-5.7-5.7
	v-7.2h57.4V229.7z M78.6,213.5l17-64.3l17,64.3H78.6z M184.4,271.5v11.9h-52.6v-11.9c0-2.4,2-4.4,4.4-4.4H180
	C182.4,267.1,184.4,269.1,184.4,271.5z M218.7,149.2l17,64.3h-34L218.7,149.2z M248.8,229.7c0,3.1-2.5,5.7-5.7,5.7h-46
	c-3.1,0-5.7-2.5-5.7-5.7v-7.2h57.4V229.7z"/>
<text transform="matrix(1 0 0 1 -48.5 485.6992)" style="font-family:'HelveticaNeue-Bold'; font-size:22.4px;">Created by Made</text>
<text transform="matrix(1 0 0 1 -48.5 508.1016)" style="font-family:'HelveticaNeue-Bold'; font-size:22.4px;">from the Noun Project</text>
<path class="st1" d="M24.5,373.7h246.9c14.1,0,25.6-11.5,25.6-25.6v-86.4h20.4c7.4,0,13.5-6,13.5-13.5v-33.6c0-3.5-1.3-6.6-3.5-9
	c2.2-2.4,3.5-5.5,3.5-9v-33.6c0-3.5-1.3-6.6-3.5-9c2.2-2.4,3.5-5.5,3.5-9v-33.6c0-3.5-1.3-6.6-3.5-9c2.2-2.4,3.5-5.5,3.5-9V60.1
	c0-7.4-6-13.5-13.5-13.5h-20.4v-5.8c0-14.1-11.5-25.6-25.6-25.6H24.5c-2.5,0-4.5,2-4.5,4.5v349.4C20.1,371.7,22.1,373.7,24.5,373.7z
	 M322,111.6v33.6c0,2.5-2,4.5-4.5,4.5h-20.4v-42.6h20.4C320,107.1,322,109.1,322,111.6z M322,163.1v33.6c0,2.5-2,4.5-4.5,4.5h-20.4
	v-42.6h20.4C320,158.6,322,160.6,322,163.1z M322,248.2c0,2.5-2,4.5-4.5,4.5h-20.4v-42.6h20.4c2.5,0,4.5,2,4.5,4.5V248.2z
	 M317.5,55.6c2.5,0,4.5,2,4.5,4.5v33.6c0,2.5-2,4.5-4.5,4.5h-20.4V55.6C297.1,55.6,317.5,55.6,317.5,55.6z M29,24.2h242.5
	c9.2,0,16.6,7.5,16.6,16.6v307.2c0,9.2-7.5,16.6-16.6,16.6H29V24.2z"/>
</svg>
