<?xml version="1.0" encoding="utf-8"?>
<!-- Generator: Adobe Illustrator 16.0.0, SVG Export Plug-In . SVG Version: 6.00 Build 0)  -->
<!DOCTYPE svg PUBLIC "-//W3C//DTD SVG 1.1//EN" "http://www.w3.org/Graphics/SVG/1.1/DTD/svg11.dtd">
<svg version="1.1" id="Layer_1" xmlns="http://www.w3.org/2000/svg" xmlns:xlink="http://www.w3.org/1999/xlink" x="0px" y="0px"
	 width="342px" height="387px" viewBox="397.5 37.5 342 387" enable-background="new 397.5 37.5 342 387" xml:space="preserve">
<path fill="#FFFFFF" d="M650.766,250.987h-8.234l-19.915-75.251c6.984,2.392,12.795,3.138,17.194,3.138
	c6.086-0.002,9.524-1.354,9.826-1.479c2.267-0.934,3.329-3.502,2.429-5.779c-0.897-2.277-3.496-3.393-5.784-2.529
	c-0.127,0.046-12.937,4.651-34.772-8.453c-22.222-13.33-42.308-14.711-51.415-14.505v-7.586c0-2.474-2.004-4.48-4.48-4.48
	c-2.476,0-4.479,2.006-4.479,4.48v7.583c-9.107-0.207-29.195,1.176-51.411,14.508c-21.839,13.108-34.641,8.505-34.715,8.475
	c-2.288-0.934-4.904,0.146-5.849,2.437c-0.941,2.288,0.148,4.906,2.437,5.849c0.302,0.125,3.74,1.479,9.826,1.479
	c3.974-0.001,9.111-0.625,15.208-2.499l-19.749,74.612h-5.518c-2.477,0-4.48,2.006-4.48,4.48v11.719
	c0,8.07,6.567,14.634,14.634,14.634h46.017c8.067,0,14.634-6.564,14.634-14.634v-11.719c0-2.474-2.004-4.48-4.479-4.48h-8.235
	l-21.02-79.427c1.91-0.967,3.866-2.021,5.9-3.243c20.43-12.262,39.033-13.369,46.8-13.198v140.514H533.77
	c-7.385,0-13.396,6.011-13.396,13.398v16.373c0,2.474,2.004,4.479,4.48,4.479h61.525c2.477,0,4.479-2.006,4.479-4.479v-16.373
	c0-7.388-6.011-13.398-13.396-13.398h-17.369V155.105c7.731-0.191,26.256,0.884,46.804,13.212c1.475,0.885,2.896,1.657,4.306,2.407
	l-21.245,80.263h-5.513c-2.477,0-4.48,2.006-4.48,4.48v11.719c0,8.07,6.567,14.634,14.635,14.634h46.012
	c8.067,0,14.635-6.564,14.635-14.634v-11.719C655.246,252.994,653.242,250.987,650.766,250.987z M523.208,267.186
	c0,3.128-2.546,5.674-5.674,5.674h-46.017c-3.128,0-5.674-2.546-5.674-5.674v-7.239h57.365V267.186z M476.15,250.987l17.019-64.297
	l17.016,64.297H476.15z M581.898,309.031v11.893h-52.565v-11.893c0-2.448,1.991-4.439,4.437-4.439h43.693
	C579.908,304.592,581.898,306.583,581.898,309.031z M616.247,186.69l17.015,64.297h-34.034L616.247,186.69z M646.285,267.186
	c0,3.128-2.546,5.674-5.674,5.674H594.6c-3.128,0-5.675-2.546-5.675-5.674v-7.239h57.36V267.186z"/>
<path fill="#FFFFFF" d="M422.041,411.174h246.934c14.113,0,25.598-11.484,25.598-25.601v-86.401h20.418
	c7.42,0,13.453-6.035,13.453-13.453v-33.576c0-3.459-1.349-6.586-3.502-8.972c2.153-2.386,3.502-5.513,3.502-8.973v-33.576
	c0-3.459-1.349-6.586-3.502-8.972c2.153-2.386,3.502-5.513,3.502-8.973v-33.576c0-3.459-1.349-6.586-3.502-8.972
	c2.153-2.386,3.502-5.513,3.502-8.973V97.583c0-7.418-6.033-13.451-13.453-13.451h-20.418v-5.757c0-14.116-11.484-25.6-25.598-25.6
	H422.041c-2.476,0-4.48,2.006-4.48,4.48v349.439C417.561,409.168,419.564,411.174,422.041,411.174z M719.483,149.103v33.576
	c0,2.479-2.017,4.493-4.493,4.493h-20.418v-42.56h20.418C717.467,144.611,719.483,146.626,719.483,149.103z M719.483,200.623v33.576
	c0,2.479-2.017,4.493-4.493,4.493h-20.418v-42.56h20.418C717.467,196.131,719.483,198.146,719.483,200.623z M719.483,285.719
	c0,2.479-2.017,4.492-4.493,4.492h-20.418v-42.56h20.418c2.477,0,4.493,2.015,4.493,4.491V285.719z M714.99,93.092
	c2.477,0,4.493,2.015,4.493,4.491v33.576c0,2.479-2.017,4.493-4.493,4.493h-20.418v-42.56H714.99z M426.521,61.734h242.454
	c9.174,0,16.638,7.463,16.638,16.64v307.199c0,9.177-7.464,16.641-16.638,16.641H426.521V61.734z"/>
<text transform="matrix(1 0 0 1 349 523.1992)" font-family="'HelveticaNeue-Bold'" font-size="22.4">Created by Made</text>
<text transform="matrix(1 0 0 1 349 545.6016)" font-family="'HelveticaNeue-Bold'" font-size="22.4">from the Noun Project</text>
</svg>
