<?xml version="1.0" encoding="utf-8"?>
<!-- Generator: Adobe Illustrator 16.0.0, SVG Export Plug-In . SVG Version: 6.00 Build 0)  -->
<!DOCTYPE svg PUBLIC "-//W3C//DTD SVG 1.1//EN" "http://www.w3.org/Graphics/SVG/1.1/DTD/svg11.dtd">
<svg version="1.1"
	 id="Layer_1" xmlns:dc="http://purl.org/dc/elements/1.1/" xmlns:cc="http://creativecommons.org/ns#" xmlns:inkscape="http://www.inkscape.org/namespaces/inkscape" xmlns:rdf="http://www.w3.org/1999/02/22-rdf-syntax-ns#" xmlns:svg="http://www.w3.org/2000/svg" xmlns:sodipodi="http://sodipodi.sourceforge.net/DTD/sodipodi-0.dtd"
	 xmlns="http://www.w3.org/2000/svg" xmlns:xlink="http://www.w3.org/1999/xlink" x="0px" y="0px" width="435px" height="408px"
	 viewBox="476.5 57.5 435 408" enable-background="new 476.5 57.5 435 408" xml:space="preserve">
<g transform="translate(0,-952.36218)">
	<path fill="#FFFFFF" d="M556.12,1018.202c-27.163,0-49.28,22.117-49.28,49.28s22.117,49.28,49.28,49.28s49.28-22.116,49.28-49.28
		S583.283,1018.202,556.12,1018.202z M556.12,1027.162c22.321,0,40.319,17.999,40.319,40.32s-17.998,40.32-40.319,40.32
		s-40.32-17.999-40.32-40.32S533.799,1027.162,556.12,1027.162z M789.08,1134.682c-32.745,0-52.445,16.24-67.2,32.9v-19.46
		c0-2.345-2.134-4.479-4.479-4.48H645.72c-2.346,0-4.479,2.135-4.479,4.48v241.92c0,2.346,2.134,4.48,4.479,4.48h76.16
		c2.346,0,4.479-2.135,4.48-4.48v-134.4c0-12.246,3.798-23.747,9.659-31.919c5.862-8.172,13.5-12.88,21.7-12.88h8.96
		c8.2,0,15.838,4.708,21.7,12.88s9.66,19.673,9.66,31.919v134.4c0,2.346,2.134,4.48,4.479,4.48h76.16c2.346,0,4.48-2.135,4.48-4.48
		v-156.8c0-29.294-5.62-54.029-20.58-71.54S823.65,1134.682,789.08,1134.682z M519.439,1143.642c-2.053,0.392-3.676,2.39-3.64,4.48
		v241.92c0.001,2.346,2.135,4.48,4.479,4.48h76.16c2.346,0,4.48-2.135,4.48-4.48v-241.92c0-2.345-2.135-4.479-4.48-4.48
		C570.801,1143.642,545.015,1143.642,519.439,1143.642z M789.08,1143.642c32.949,0,53.82,8.771,66.78,23.94
		c12.959,15.169,18.34,37.514,18.34,65.66v152.32H807v-129.921c0-14.061-4.246-27.349-11.34-37.239
		c-7.095-9.891-17.325-16.52-28.98-16.52h-8.96c-11.655,0-21.886,6.629-28.979,16.52c-7.095,9.891-11.34,23.179-11.34,37.239v58.24
		c-3.225,0-6.646,0-9.801,0c-2.346,0.221-4.279,2.555-4.06,4.9s2.555,4.28,4.9,4.061h8.96v26.88c-3.225-0.001-6.646,0-9.801,0
		c-2.346,0.22-4.279,2.554-4.06,4.899s2.555,4.28,4.9,4.061h8.96v26.88h-67.2v-232.96h62.72v26.88
		c-0.002,3.686,5.679,5.679,7.98,2.8C736.08,1163.356,753.76,1143.642,789.08,1143.642z M524.76,1152.602h67.2v161.279
		c-3.225,0-6.646,0-9.8,0c-2.346,0.221-4.28,2.555-4.061,4.9c0.221,2.346,2.555,4.28,4.9,4.061h8.96v26.88
		c-3.225-0.001-6.646,0-9.8,0c-2.346,0.22-4.28,2.554-4.061,4.899c0.221,2.346,2.555,4.28,4.9,4.061h8.96v26.88h-67.2V1152.602z"/>
</g>
</svg>
