<?xml version="1.0" encoding="utf-8"?>
<!-- Generator: Adobe Illustrator 16.0.0, SVG Export Plug-In . SVG Version: 6.00 Build 0)  -->
<!DOCTYPE svg PUBLIC "-//W3C//DTD SVG 1.1//EN" "http://www.w3.org/Graphics/SVG/1.1/DTD/svg11.dtd">
<svg version="1.1"
	 id="Layer_1" xmlns:dc="http://purl.org/dc/elements/1.1/" xmlns:cc="http://creativecommons.org/ns#" xmlns:inkscape="http://www.inkscape.org/namespaces/inkscape" xmlns:rdf="http://www.w3.org/1999/02/22-rdf-syntax-ns#" xmlns:svg="http://www.w3.org/2000/svg" xmlns:sodipodi="http://sodipodi.sourceforge.net/DTD/sodipodi-0.dtd"
	 xmlns="http://www.w3.org/2000/svg" xmlns:xlink="http://www.w3.org/1999/xlink" x="0px" y="0px" width="435px" height="408px"
	 viewBox="0 0 435 408" enable-background="new 0 0 435 408" xml:space="preserve">
<g transform="translate(0,-952.36218)">
	<path fill="#FFFFFF" d="M78.621,958.542c-27.163,0-49.28,22.117-49.28,49.28s22.117,49.28,49.28,49.28s49.28-22.116,49.28-49.28
		S105.784,958.542,78.621,958.542z M78.621,967.502c22.321,0,40.319,17.999,40.319,40.32s-17.998,40.32-40.319,40.32
		s-40.32-17.999-40.32-40.32S56.3,967.502,78.621,967.502z M311.581,1075.022c-32.745,0-52.445,16.24-67.2,32.9v-19.46
		c0-2.345-2.134-4.479-4.479-4.48h-71.682c-2.346,0-4.479,2.135-4.479,4.48v241.92c0,2.346,2.134,4.48,4.479,4.48h76.16
		c2.346,0,4.479-2.135,4.48-4.48v-134.4c0-12.245,3.798-23.746,9.658-31.918c5.862-8.172,13.5-12.881,21.7-12.881h8.96
		c8.2,0,15.838,4.709,21.7,12.881s9.66,19.673,9.66,31.918v134.4c0,2.346,2.134,4.48,4.479,4.48h76.16c2.347,0,4.48-2.135,4.48-4.48
		v-156.8c0-29.294-5.62-54.029-20.58-71.54S346.151,1075.022,311.581,1075.022z M41.94,1083.982c-2.054,0.392-3.677,2.39-3.641,4.48
		v241.92c0.001,2.346,2.135,4.48,4.479,4.48h76.159c2.347,0,4.48-2.136,4.48-4.48v-241.92c0-2.345-2.135-4.479-4.48-4.48
		C93.302,1083.982,67.516,1083.982,41.94,1083.982z M311.581,1083.982c32.949,0,53.82,8.771,66.78,23.94
		c12.959,15.169,18.34,37.515,18.34,65.66v152.32h-67.2v-129.921c0-14.062-4.246-27.35-11.34-37.239
		c-7.095-9.892-17.325-16.521-28.98-16.521h-8.96c-11.655,0-21.886,6.629-28.979,16.521c-7.095,9.891-11.34,23.179-11.34,37.239
		v58.239c-3.226,0-6.646,0-9.802,0c-2.346,0.222-4.278,2.556-4.06,4.9s2.555,4.28,4.899,4.061h8.961v26.88c-3.226,0-6.646,0-9.802,0
		c-2.346,0.221-4.278,2.555-4.06,4.899s2.555,4.28,4.9,4.062h8.96v26.88h-67.2v-232.96h62.72v26.88
		c-0.002,3.687,5.679,5.679,7.979,2.8C258.581,1103.696,276.261,1083.982,311.581,1083.982z M47.261,1092.942h67.2v161.279
		c-3.225,0-6.646,0-9.8,0c-2.346,0.222-4.28,2.556-4.062,4.9c0.222,2.346,2.556,4.28,4.9,4.062h8.96v26.88
		c-3.225-0.001-6.646,0-9.8,0c-2.346,0.22-4.28,2.554-4.062,4.898c0.222,2.347,2.556,4.28,4.9,4.062h8.96v26.88h-67.2v-232.96
		H47.261z"/>
</g>
<text transform="matrix(1 0 0 1 471 545.1992)" font-family="'HelveticaNeue-Bold'" font-size="22.4">Created by rivda</text>
<text transform="matrix(1 0 0 1 471 567.6016)" font-family="'HelveticaNeue-Bold'" font-size="22.4">from the Noun Project</text>
</svg>
