<?xml version="1.0" encoding="utf-8"?>
<!-- Generator: Adobe Illustrator 16.0.0, SVG Export Plug-In . SVG Version: 6.00 Build 0)  -->
<!DOCTYPE svg PUBLIC "-//W3C//DTD SVG 1.1//EN" "http://www.w3.org/Graphics/SVG/1.1/DTD/svg11.dtd">
<svg version="1.1" id="Layer_1" xmlns="http://www.w3.org/2000/svg" xmlns:xlink="http://www.w3.org/1999/xlink" x="0px" y="0px"
	 width="297px" height="229.75px" viewBox="0 0 297 229.75" enable-background="new 0 0 297 229.75" xml:space="preserve">
<path fill="#FFFFFF" d="M190.847,31.543c12.169-0.018,23.802,5.012,32.126,13.889c9.857-1.94,19.312-5.554,27.95-10.681
	C247.64,44.946,240.762,53.6,231.569,59.1c8.726-1.035,17.247-3.371,25.28-6.931c-5.904,8.839-13.339,16.556-21.951,22.785
	c0.082,1.888,0.125,3.786,0.125,5.694c0,58.164-44.271,125.229-125.229,125.229c-23.922,0.022-47.344-6.843-67.469-19.773
	c3.485,0.41,6.991,0.615,10.501,0.613c19.816,0.028,39.066-6.607,54.656-18.844c-18.83-0.354-35.354-12.638-41.117-30.566
	c6.597,1.265,13.396,1.008,19.878-0.754c-20.539-4.154-35.306-22.205-35.308-43.16c0-0.184,0-0.367,0-0.551
	c6.108,3.412,12.944,5.312,19.937,5.543C51.525,85.46,45.561,59.723,57.248,39.605c22.351,27.5,55.327,44.217,90.72,45.988
	c-5.503-23.72,9.265-47.408,32.983-52.912C184.196,31.932,187.516,31.548,190.847,31.543 M266.895,14.703l-20.607,12.23
	c-6.409,3.808-13.327,6.687-20.545,8.552c-22.141-19.259-55.7-16.925-74.96,5.215c-8.386,9.64-13.019,21.979-13.045,34.755
	C108.92,71.262,82.723,56.416,64.318,33.85l-8.307-10.188l-6.644,11.375c-7.786,13.413-9.337,29.554-4.247,44.204l-3.029-1.68
	l-0.273,15.156v0.717c0.007,11.936,4.039,23.521,11.443,32.883l4.42,13.803c4.322,13.501,13.866,24.711,26.504,31.132
	c-9.908,4.244-20.579,6.42-31.359,6.394c-3.153,0-6.303-0.185-9.436-0.551L4.12,172.465l33.282,21.34
	c21.596,13.861,46.721,21.226,72.383,21.211c38.126,0.856,74.673-15.221,99.806-43.903c21.995-25.025,34.253-57.13,34.532-90.446
	c0-0.424,0-0.85,0-1.271c7.855-6.293,14.698-13.758,20.285-22.131l17.472-26.119l-23.802,10.56c0.562-1.356,1.066-2.737,1.519-4.144
	l7.298-22.849l0,0V14.703L266.895,14.703z"/>
</svg>
