<svg id="Layer_1" data-name="Layer 1" xmlns="http://www.w3.org/2000/svg" viewBox="0 0 440 320"><defs><style>.cls-1{fill:gray;stroke:#000;stroke-miterlimit:10;opacity:0.7;}.cls-2{fill:#fff;}</style></defs><title>demoGray</title><polygon class="cls-1" points="49.53 32.32 384 32.32 397 44 397 271.67 424.33 271.67 407 294.33 39.67 294.33 13 277.12 49.53 263.68 49.53 32.32"/><path class="cls-2" d="M403.91,277.12H36.09V52.48a33.6,33.6,0,0,1,33.6-33.6H370.31a33.6,33.6,0,0,1,33.6,33.6V277.12Zm-13.44-13.44V52.48a20.17,20.17,0,0,0-20.16-20.16H69.69A20.17,20.17,0,0,0,49.53,52.48v211.2Z"/><path class="cls-2" d="M21.35,277.12A14.9,14.9,0,0,0,35.6,287.68H404.4a14.88,14.88,0,0,0,14.24-10.56Zm411.2-7.46a29.88,29.88,0,0,1,.17,3.14,28.32,28.32,0,0,1-28.32,28.32H35.6A28.32,28.32,0,0,1,7.28,272.8a29.88,29.88,0,0,1,.17-3.14,6.72,6.72,0,0,1,6.68-6H425.87A6.72,6.72,0,0,1,432.55,269.66Z"/><rect class="cls-2" x="188.11" y="141.49" width="13.44" height="35.84" transform="matrix(0.74, -0.67, 0.67, 0.74, -56.62, 171.31)"/><rect class="cls-2" x="190.34" y="143.7" width="71.68" height="13.44" transform="translate(-43.77 180.58) rotate(-40)"/></svg>