<?xml version="1.0" encoding="utf-8"?>
<!-- Generator: Adobe Illustrator 16.0.0, SVG Export Plug-In . SVG Version: 6.00 Build 0)  -->
<!DOCTYPE svg PUBLIC "-//W3C//DTD SVG 1.1//EN" "http://www.w3.org/Graphics/SVG/1.1/DTD/svg11.dtd">
<svg version="1.1" id="Layer_1" xmlns="http://www.w3.org/2000/svg" xmlns:xlink="http://www.w3.org/1999/xlink" x="0px" y="0px"
	 width="440px" height="320px" viewBox="0 0 440 320" enable-background="new 0 0 440 320" xml:space="preserve">
<g>
	<g>
		<path fill="#FFFFFF" d="M403.906,277.12H36.092V52.48c0-18.557,15.043-33.6,33.601-33.6h300.614c18.557,0,33.6,15.043,33.6,33.6
			V277.12z M390.467,263.68V52.48c0-11.134-9.025-20.16-20.16-20.16H69.692c-11.134,0-20.16,9.026-20.16,20.16v211.2H390.467z"/>
		<path fill="#FFFFFF" d="M21.355,277.12c1.851,6.111,7.527,10.56,14.242,10.56H404.4c6.716,0,12.393-4.447,14.243-10.56H21.355z
			 M432.548,269.662c0.115,1.037,0.173,2.085,0.173,3.138c0,15.642-12.68,28.32-28.319,28.32H35.598
			c-15.641,0-28.319-12.68-28.319-28.32c0-1.053,0.058-2.101,0.172-3.138c0.376-3.405,3.253-5.982,6.679-5.982h411.739
			C429.295,263.68,432.172,266.257,432.548,269.662z"/>
		
			<rect x="176.911" y="152.698" transform="matrix(0.6691 0.7431 -0.7431 0.6691 182.9281 -92.0405)" fill="#FFFFFF" width="35.839" height="13.44"/>
		
			<rect x="190.331" y="143.696" transform="matrix(-0.766 0.6428 -0.6428 -0.766 496.1105 120.2519)" fill="#FFFFFF" width="71.679" height="13.44"/>
	</g>
</g>
</svg>
