<?xml version="1.0" encoding="utf-8"?>
<!-- Generator: Adobe Illustrator 22.1.0, SVG Export Plug-In . SVG Version: 6.00 Build 0)  -->
<svg version="1.1" id="Layer_1" xmlns="http://www.w3.org/2000/svg" xmlns:xlink="http://www.w3.org/1999/xlink" x="0px" y="0px"
	 viewBox="0 0 374 365" style="enable-background:new 0 0 374 365;" xml:space="preserve">
<style type="text/css">
	.st0{opacity:0.7;fill:#808080;}
	.st1{fill:#FFFFFF;}
</style>
<polygon class="st0" points="17,14 353,15 355,349 19,351 "/>
<path class="st1" d="M14.3,10v345h345.4V10H14.3z M350.3,124.3H245V19h105.7v105.3L350.3,124.3L350.3,124.3z M133,236.3V234
	l49.7-66.3c2.2,1.3,4.5,2.2,7.6,2.2c4.9,0,9-2.7,11.6-6.7l39,25.5v47.5L133,236.3L133,236.3z M240.5,240.7V346H133V240.7
	L240.5,240.7L240.5,240.7z M240.5,128.7v54.7l-37.2-24.2c0-0.9,0.4-1.8,0.4-2.7c0-7.6-5.8-13.4-13.4-13.4s-13.4,5.8-13.4,13.4
	c0,3.1,0.9,5.8,2.7,8.1L133,226.4v-97.7L240.5,128.7L240.5,128.7z M133,124.3V19h107.5v105.3L133,124.3L133,124.3z M128.5,232.2
	l-2.7,4H78.4l-12.1-30.5c3.6-2.2,6.3-6.7,6.3-11.2c0-7.6-5.8-13.4-13.4-13.4s-13.4,5.8-13.4,13.4S51.5,208,59.1,208
	c0.9,0,1.8,0,3.1-0.4l11.6,28.7H23.7V128.7H129v103.5L128.5,232.2L128.5,232.2z M101.2,269c-2.2-1.8-4.9-2.7-8.1-2.7
	c-0.9,0-1.8,0-2.7,0.4l-10.3-25.5h42.1L101.2,269z M245,191.5l19.3,12.5c0,0.4,0,0.9,0,1.3c0,7.6,5.8,13.4,13.4,13.4
	c7.6,0,13.4-5.8,13.4-13.4c0-2.7-0.9-5.4-2.2-7.2l24.6-24.6c2.2,1.8,4.9,2.7,8.1,2.7c7.6,0,13.4-5.8,13.4-13.4
	c0-7.6-5.8-13.4-13.4-13.4c-7.6,0-13.4,5.8-13.4,13.4c0,2.7,0.9,5.4,2.2,7.2l-24.6,24.6c-2.2-1.8-4.9-2.7-8.1-2.7
	c-5.4,0-9.9,3.1-12.1,7.6L245,186.1v-57.3h105.7v107.5H245V191.5z M128.5,19v105.3H23.3V19H128.5z M23.3,240.7h52l11.2,27.3
	c-4,2.2-6.3,6.7-6.3,11.2c0,7.6,5.8,13.4,13.4,13.4c7.6,0,13.4-5.8,13.4-13.4c0-2.7-0.9-5.4-2.2-7.2l23.3-31.4h0.4V346H23.3V240.7z
	 M245,346V240.7h105.7V346H245L245,346z"/>
</svg>
