<?xml version="1.0" encoding="utf-8"?>
<!-- Generator: Adobe Illustrator 16.0.0, SVG Export Plug-In . SVG Version: 6.00 Build 0)  -->
<!DOCTYPE svg PUBLIC "-//W3C//DTD SVG 1.1//EN" "http://www.w3.org/Graphics/SVG/1.1/DTD/svg11.dtd">
<svg version="1.1" id="Layer_1" xmlns="http://www.w3.org/2000/svg" xmlns:xlink="http://www.w3.org/1999/xlink" x="0px" y="0px"
	 width="374px" height="365px" viewBox="0 0 374 365" enable-background="new 0 0 374 365" xml:space="preserve">
<path fill="#FFFFFF" d="M14.296,10.02v344.96h345.408V10.02H14.296z M350.298,124.26H245.017V18.979h105.728v105.28H350.298
	L350.298,124.26z M133.017,236.26v-2.24l49.728-66.304c2.24,1.344,4.48,2.239,7.616,2.239c4.928,0,8.96-2.688,11.648-6.721
	l38.976,25.536v47.488L133.017,236.26L133.017,236.26z M240.536,240.739v105.28h-107.52v-105.28H240.536z M240.536,128.739v54.656
	l-37.184-24.19c0-0.896,0.447-1.792,0.447-2.688c0-7.616-5.823-13.438-13.439-13.438s-13.439,5.822-13.439,13.438
	c0,3.136,0.896,5.824,2.688,8.064l-46.592,61.822v-97.664H240.536z M133.017,124.26V18.979h107.52v105.28H133.017L133.017,124.26z
	 M128.536,232.228l-2.688,4.032H78.36l-12.096-30.464c3.584-2.24,6.271-6.721,6.271-11.2c0-7.616-5.824-13.439-13.44-13.439
	c-7.616,0-13.44,5.823-13.44,13.439s5.824,13.439,13.44,13.439c0.896,0,1.792,0,3.136-0.447l11.648,28.672H23.705V128.739h105.28
	v103.488H128.536z M101.208,268.964c-2.24-1.792-4.928-2.688-8.064-2.688c-0.896,0-1.792,0-2.688,0.448l-10.304-25.536h42.112
	L101.208,268.964z M245.017,191.46l19.264,12.544c0,0.446,0,0.896,0,1.344c0,7.616,5.824,13.439,13.439,13.439
	c7.617,0,13.44-5.823,13.44-13.439c0-2.688-0.896-5.376-2.239-7.168l24.64-24.641c2.239,1.793,4.928,2.688,8.063,2.688
	c7.616,0,13.44-5.824,13.44-13.44c0-7.614-5.824-13.438-13.44-13.438c-7.615,0-13.439,5.824-13.439,13.438
	c0,2.688,0.896,5.378,2.24,7.169l-24.641,24.641c-2.24-1.792-4.928-2.688-8.062-2.688c-5.377,0-9.856,3.138-12.096,7.616
	l-20.608-13.438v-57.346h105.728V236.26H245.017V191.46z M128.536,18.979v105.28H23.256V18.979H128.536z M23.256,240.739h51.968
	l11.2,27.328c-4.032,2.24-6.272,6.722-6.272,11.2c0,7.616,5.824,13.44,13.44,13.44c7.616,0,13.44-5.824,13.44-13.44
	c0-2.688-0.896-5.376-2.24-7.168l23.296-31.36h0.448v105.28H23.256V240.739z M245.017,346.02v-105.28h105.728v105.28H245.017
	L245.017,346.02z"/>
</svg>
